<svg width="32" height="30" viewBox="0 0 32 30" fill="none" xmlns="http://www.w3.org/2000/svg">
<path d="M13.3672 25.1072C16.333 25.1066 19.2133 24.1742 21.5495 22.4584L28.8948 29.3566L31.2574 27.1378L23.9122 20.2396C25.7401 18.0453 26.7336 15.3396 26.7343 12.5536C26.7343 5.63186 20.7375 0 13.3672 0C5.99684 0 0 5.63186 0 12.5536C0 19.4754 5.99684 25.1072 13.3672 25.1072ZM13.3672 3.1384C18.8962 3.1384 23.3925 7.36112 23.3925 12.5536C23.3925 17.7461 18.8962 21.9688 13.3672 21.9688C7.83817 21.9688 3.34179 17.7461 3.34179 12.5536C3.34179 7.36112 7.83817 3.1384 13.3672 3.1384Z" fill="#FF3114"/>
</svg>
